<mxfile host="app.diagrams.net" agent="Mozilla/5.0 (Windows NT 10.0; Win64; x64; rv:139.0) Gecko/20100101 Firefox/139.0" version="27.1.6">
  <diagram name="Page-1" id="w6L0wD1b4Iy56t-mOnio">
    <mxGraphModel dx="2022" dy="2057" grid="1" gridSize="10" guides="1" tooltips="1" connect="1" arrows="1" fold="1" page="1" pageScale="1" pageWidth="1169" pageHeight="827" background="#FFFFFF" math="0" shadow="0">
      <root>
        <mxCell id="0" />
        <mxCell id="1" parent="0" />
        <mxCell id="QEqk4cH7dGDGcWlQzDzq-15" style="edgeStyle=orthogonalEdgeStyle;rounded=0;orthogonalLoop=1;jettySize=auto;html=1;entryX=0;entryY=0.5;entryDx=0;entryDy=0;" edge="1" parent="1" source="QEqk4cH7dGDGcWlQzDzq-1" target="QEqk4cH7dGDGcWlQzDzq-4">
          <mxGeometry relative="1" as="geometry">
            <mxPoint x="320" y="170" as="targetPoint" />
          </mxGeometry>
        </mxCell>
        <mxCell id="QEqk4cH7dGDGcWlQzDzq-43" style="edgeStyle=orthogonalEdgeStyle;rounded=0;orthogonalLoop=1;jettySize=auto;html=1;exitX=0;exitY=1;exitDx=0;exitDy=0;" edge="1" parent="1" source="QEqk4cH7dGDGcWlQzDzq-1">
          <mxGeometry relative="1" as="geometry">
            <mxPoint x="410" y="390" as="targetPoint" />
            <Array as="points">
              <mxPoint x="78" y="380" />
              <mxPoint x="400" y="380" />
              <mxPoint x="400" y="390" />
            </Array>
          </mxGeometry>
        </mxCell>
        <mxCell id="QEqk4cH7dGDGcWlQzDzq-47" style="edgeStyle=orthogonalEdgeStyle;rounded=0;orthogonalLoop=1;jettySize=auto;html=1;exitX=0.5;exitY=0;exitDx=0;exitDy=0;entryX=1;entryY=0.25;entryDx=0;entryDy=0;" edge="1" parent="1" source="QEqk4cH7dGDGcWlQzDzq-1" target="QEqk4cH7dGDGcWlQzDzq-11">
          <mxGeometry relative="1" as="geometry">
            <Array as="points">
              <mxPoint x="120" y="40" />
              <mxPoint x="1050" y="40" />
              <mxPoint x="1050" y="410" />
            </Array>
          </mxGeometry>
        </mxCell>
        <mxCell id="QEqk4cH7dGDGcWlQzDzq-1" value="POSJETITELJI" style="ellipse;whiteSpace=wrap;html=1;" vertex="1" parent="1">
          <mxGeometry x="60" y="130" width="120" height="80" as="geometry" />
        </mxCell>
        <mxCell id="QEqk4cH7dGDGcWlQzDzq-23" style="edgeStyle=orthogonalEdgeStyle;rounded=0;orthogonalLoop=1;jettySize=auto;html=1;exitX=0;exitY=0;exitDx=0;exitDy=0;" edge="1" parent="1" source="QEqk4cH7dGDGcWlQzDzq-2">
          <mxGeometry relative="1" as="geometry">
            <mxPoint x="610" y="151.5" as="targetPoint" />
          </mxGeometry>
        </mxCell>
        <mxCell id="QEqk4cH7dGDGcWlQzDzq-2" value="OSOBLJE" style="ellipse;whiteSpace=wrap;html=1;" vertex="1" parent="1">
          <mxGeometry x="825" y="140" width="120" height="80" as="geometry" />
        </mxCell>
        <mxCell id="QEqk4cH7dGDGcWlQzDzq-33" style="edgeStyle=orthogonalEdgeStyle;rounded=0;orthogonalLoop=1;jettySize=auto;html=1;entryX=0;entryY=0.5;entryDx=0;entryDy=0;" edge="1" parent="1" source="QEqk4cH7dGDGcWlQzDzq-3" target="QEqk4cH7dGDGcWlQzDzq-9">
          <mxGeometry relative="1" as="geometry" />
        </mxCell>
        <mxCell id="QEqk4cH7dGDGcWlQzDzq-37" style="edgeStyle=orthogonalEdgeStyle;rounded=0;orthogonalLoop=1;jettySize=auto;html=1;exitX=0.5;exitY=1;exitDx=0;exitDy=0;entryX=0;entryY=0.25;entryDx=0;entryDy=0;" edge="1" parent="1" source="QEqk4cH7dGDGcWlQzDzq-3" target="QEqk4cH7dGDGcWlQzDzq-7">
          <mxGeometry relative="1" as="geometry" />
        </mxCell>
        <mxCell id="QEqk4cH7dGDGcWlQzDzq-62" style="edgeStyle=orthogonalEdgeStyle;rounded=0;orthogonalLoop=1;jettySize=auto;html=1;exitX=0;exitY=1;exitDx=0;exitDy=0;entryX=0;entryY=0.75;entryDx=0;entryDy=0;" edge="1" parent="1" source="QEqk4cH7dGDGcWlQzDzq-3" target="QEqk4cH7dGDGcWlQzDzq-13">
          <mxGeometry relative="1" as="geometry">
            <Array as="points">
              <mxPoint x="20" y="478" />
              <mxPoint x="20" y="1030" />
            </Array>
          </mxGeometry>
        </mxCell>
        <mxCell id="QEqk4cH7dGDGcWlQzDzq-3" value="ADMINISTRACIJA" style="ellipse;whiteSpace=wrap;html=1;" vertex="1" parent="1">
          <mxGeometry y="410" width="120" height="80" as="geometry" />
        </mxCell>
        <mxCell id="QEqk4cH7dGDGcWlQzDzq-20" style="edgeStyle=orthogonalEdgeStyle;rounded=0;orthogonalLoop=1;jettySize=auto;html=1;exitX=0;exitY=0.75;exitDx=0;exitDy=0;entryX=0.5;entryY=1;entryDx=0;entryDy=0;" edge="1" parent="1" source="QEqk4cH7dGDGcWlQzDzq-4" target="QEqk4cH7dGDGcWlQzDzq-1">
          <mxGeometry relative="1" as="geometry">
            <Array as="points">
              <mxPoint x="410" y="240" />
              <mxPoint x="120" y="240" />
            </Array>
          </mxGeometry>
        </mxCell>
        <mxCell id="QEqk4cH7dGDGcWlQzDzq-30" style="edgeStyle=orthogonalEdgeStyle;rounded=0;orthogonalLoop=1;jettySize=auto;html=1;exitX=1;exitY=0.75;exitDx=0;exitDy=0;entryX=0;entryY=1;entryDx=0;entryDy=0;" edge="1" parent="1" source="QEqk4cH7dGDGcWlQzDzq-4" target="QEqk4cH7dGDGcWlQzDzq-2">
          <mxGeometry relative="1" as="geometry">
            <Array as="points">
              <mxPoint x="843" y="220" />
            </Array>
          </mxGeometry>
        </mxCell>
        <mxCell id="QEqk4cH7dGDGcWlQzDzq-4" value="P1" style="swimlane;whiteSpace=wrap;html=1;rounded=1;" vertex="1" parent="1">
          <mxGeometry x="410" y="70" width="200" height="200" as="geometry" />
        </mxCell>
        <mxCell id="QEqk4cH7dGDGcWlQzDzq-6" value="PRIJAVA U SUSTAV" style="text;html=1;align=center;verticalAlign=middle;resizable=0;points=[];autosize=1;strokeColor=none;fillColor=none;" vertex="1" parent="QEqk4cH7dGDGcWlQzDzq-4">
          <mxGeometry x="35" y="90" width="130" height="30" as="geometry" />
        </mxCell>
        <mxCell id="QEqk4cH7dGDGcWlQzDzq-7" value="P3" style="swimlane;whiteSpace=wrap;html=1;rounded=1;" vertex="1" parent="1">
          <mxGeometry x="410" y="620" width="205" height="200" as="geometry" />
        </mxCell>
        <mxCell id="QEqk4cH7dGDGcWlQzDzq-8" value="PLANIRANJE PROJEKCIJA" style="text;html=1;align=center;verticalAlign=middle;resizable=0;points=[];autosize=1;strokeColor=none;fillColor=none;" vertex="1" parent="QEqk4cH7dGDGcWlQzDzq-7">
          <mxGeometry x="15" y="85" width="170" height="30" as="geometry" />
        </mxCell>
        <mxCell id="QEqk4cH7dGDGcWlQzDzq-35" style="edgeStyle=orthogonalEdgeStyle;rounded=0;orthogonalLoop=1;jettySize=auto;html=1;exitX=0;exitY=0.75;exitDx=0;exitDy=0;entryX=1;entryY=1;entryDx=0;entryDy=0;" edge="1" parent="1" source="QEqk4cH7dGDGcWlQzDzq-9" target="QEqk4cH7dGDGcWlQzDzq-3">
          <mxGeometry relative="1" as="geometry">
            <Array as="points">
              <mxPoint x="102" y="500" />
            </Array>
          </mxGeometry>
        </mxCell>
        <mxCell id="QEqk4cH7dGDGcWlQzDzq-9" value="P2" style="swimlane;whiteSpace=wrap;html=1;rounded=1;" vertex="1" parent="1">
          <mxGeometry x="410" y="350" width="200" height="200" as="geometry" />
        </mxCell>
        <mxCell id="QEqk4cH7dGDGcWlQzDzq-10" value="UPRAVLJANJE FILMOVIMA" style="text;html=1;align=center;verticalAlign=middle;resizable=0;points=[];autosize=1;strokeColor=none;fillColor=none;" vertex="1" parent="QEqk4cH7dGDGcWlQzDzq-9">
          <mxGeometry x="10" y="90" width="180" height="30" as="geometry" />
        </mxCell>
        <mxCell id="QEqk4cH7dGDGcWlQzDzq-55" style="edgeStyle=orthogonalEdgeStyle;rounded=0;orthogonalLoop=1;jettySize=auto;html=1;exitX=0.75;exitY=0;exitDx=0;exitDy=0;entryX=1;entryY=0.5;entryDx=0;entryDy=0;" edge="1" parent="1" source="QEqk4cH7dGDGcWlQzDzq-11" target="QEqk4cH7dGDGcWlQzDzq-2">
          <mxGeometry relative="1" as="geometry" />
        </mxCell>
        <mxCell id="QEqk4cH7dGDGcWlQzDzq-56" value="&lt;span&gt;PROSLJEĐIVANJE REZERVACIJE&lt;/span&gt;" style="edgeLabel;html=1;align=center;verticalAlign=middle;resizable=0;points=[];labelBackgroundColor=none;fontSize=10;" vertex="1" connectable="0" parent="QEqk4cH7dGDGcWlQzDzq-55">
          <mxGeometry x="0.1007" y="1" relative="1" as="geometry">
            <mxPoint x="-8" y="-3" as="offset" />
          </mxGeometry>
        </mxCell>
        <mxCell id="QEqk4cH7dGDGcWlQzDzq-58" style="edgeStyle=orthogonalEdgeStyle;rounded=0;orthogonalLoop=1;jettySize=auto;html=1;exitX=0.25;exitY=1;exitDx=0;exitDy=0;entryX=0;entryY=0.5;entryDx=0;entryDy=0;" edge="1" parent="1" source="QEqk4cH7dGDGcWlQzDzq-11" target="QEqk4cH7dGDGcWlQzDzq-57">
          <mxGeometry relative="1" as="geometry">
            <Array as="points">
              <mxPoint x="848" y="560" />
              <mxPoint x="848" y="710" />
            </Array>
          </mxGeometry>
        </mxCell>
        <mxCell id="QEqk4cH7dGDGcWlQzDzq-59" value="SLANJE ZAHTJEVA POSJETITELJA ZA PLAĆANJE" style="edgeLabel;html=1;align=center;verticalAlign=middle;resizable=0;points=[];labelBackgroundColor=none;" vertex="1" connectable="0" parent="QEqk4cH7dGDGcWlQzDzq-58">
          <mxGeometry x="-0.0569" y="-3" relative="1" as="geometry">
            <mxPoint as="offset" />
          </mxGeometry>
        </mxCell>
        <mxCell id="QEqk4cH7dGDGcWlQzDzq-11" value="P4" style="swimlane;whiteSpace=wrap;html=1;rounded=1;" vertex="1" parent="1">
          <mxGeometry x="825" y="360" width="205" height="200" as="geometry" />
        </mxCell>
        <mxCell id="QEqk4cH7dGDGcWlQzDzq-12" value="&lt;div&gt;UPRAVLJANJE REZERVACIJAMA&amp;nbsp;&lt;/div&gt;&lt;div&gt;I PLAĆANJEM&lt;/div&gt;" style="text;html=1;align=center;verticalAlign=middle;resizable=0;points=[];autosize=1;strokeColor=none;fillColor=none;" vertex="1" parent="QEqk4cH7dGDGcWlQzDzq-11">
          <mxGeometry x="-5" y="95" width="210" height="40" as="geometry" />
        </mxCell>
        <mxCell id="QEqk4cH7dGDGcWlQzDzq-13" value="P5" style="swimlane;whiteSpace=wrap;html=1;rounded=1;" vertex="1" parent="1">
          <mxGeometry x="340" y="880" width="200" height="200" as="geometry" />
        </mxCell>
        <mxCell id="QEqk4cH7dGDGcWlQzDzq-14" value="UPRAVLJANJE IZVJEŠTAJIMA" style="text;html=1;align=center;verticalAlign=middle;resizable=0;points=[];autosize=1;strokeColor=none;fillColor=none;" vertex="1" parent="QEqk4cH7dGDGcWlQzDzq-13">
          <mxGeometry x="5" y="90" width="190" height="30" as="geometry" />
        </mxCell>
        <mxCell id="QEqk4cH7dGDGcWlQzDzq-16" value="UPISIVANJE PODATAKA ZA PRIJAVU" style="text;html=1;align=center;verticalAlign=middle;whiteSpace=wrap;rounded=0;" vertex="1" parent="1">
          <mxGeometry x="190" y="140" width="210" height="30" as="geometry" />
        </mxCell>
        <mxCell id="QEqk4cH7dGDGcWlQzDzq-18" value="ODOBRAVANJE ILI ODBIJANJE PRISTUPA SUSTAVU" style="text;html=1;align=center;verticalAlign=middle;whiteSpace=wrap;rounded=0;" vertex="1" parent="1">
          <mxGeometry x="170" y="200" width="230" height="30" as="geometry" />
        </mxCell>
        <mxCell id="QEqk4cH7dGDGcWlQzDzq-26" value="UPISIVANJE PODATAKA ZA PRIJAVU" style="text;html=1;align=center;verticalAlign=middle;whiteSpace=wrap;rounded=0;" vertex="1" parent="1">
          <mxGeometry x="610" y="120" width="210" height="30" as="geometry" />
        </mxCell>
        <mxCell id="QEqk4cH7dGDGcWlQzDzq-28" value="ODOBRAVANJE ILI ODBIJANJE PRISTUPA SUSTAVU" style="text;html=1;align=center;verticalAlign=middle;whiteSpace=wrap;rounded=0;" vertex="1" parent="1">
          <mxGeometry x="610" y="190" width="230" height="30" as="geometry" />
        </mxCell>
        <mxCell id="QEqk4cH7dGDGcWlQzDzq-34" value="&lt;div&gt;DODAVANJE FILMOVA&lt;/div&gt;&lt;div&gt;UREĐIVANJE I BRISANJE INFORMACIJA O FILMOVIMA&lt;/div&gt;" style="text;html=1;align=center;verticalAlign=middle;whiteSpace=wrap;rounded=0;" vertex="1" parent="1">
          <mxGeometry x="100" y="414" width="310" height="10" as="geometry" />
        </mxCell>
        <mxCell id="QEqk4cH7dGDGcWlQzDzq-36" value="PROMJENE USPJEŠNE/NEUSPJEŠNE" style="text;html=1;align=center;verticalAlign=middle;whiteSpace=wrap;rounded=0;" vertex="1" parent="1">
          <mxGeometry x="180" y="460" width="160" height="50" as="geometry" />
        </mxCell>
        <mxCell id="QEqk4cH7dGDGcWlQzDzq-38" value="&lt;div&gt;ODABIR FILMA I TERMINA PROJEKCIJE&lt;/div&gt;&lt;div&gt;ODABIR SLOBODNE SALE&lt;/div&gt;" style="text;html=1;align=center;verticalAlign=middle;whiteSpace=wrap;rounded=0;" vertex="1" parent="1">
          <mxGeometry x="200" y="640" width="170" height="10" as="geometry" />
        </mxCell>
        <mxCell id="QEqk4cH7dGDGcWlQzDzq-39" style="edgeStyle=orthogonalEdgeStyle;rounded=0;orthogonalLoop=1;jettySize=auto;html=1;exitX=0;exitY=0.5;exitDx=0;exitDy=0;entryX=0.584;entryY=0.976;entryDx=0;entryDy=0;entryPerimeter=0;" edge="1" parent="1" source="QEqk4cH7dGDGcWlQzDzq-7" target="QEqk4cH7dGDGcWlQzDzq-3">
          <mxGeometry relative="1" as="geometry" />
        </mxCell>
        <mxCell id="QEqk4cH7dGDGcWlQzDzq-40" value="ODABIR USPJEŠAN/NEUSPJEŠAN" style="text;html=1;align=center;verticalAlign=middle;whiteSpace=wrap;rounded=0;" vertex="1" parent="1">
          <mxGeometry x="200" y="680" width="160" height="50" as="geometry" />
        </mxCell>
        <mxCell id="QEqk4cH7dGDGcWlQzDzq-44" value="PRETRAŽIVANJE FILMOVA" style="text;html=1;align=center;verticalAlign=middle;whiteSpace=wrap;rounded=0;" vertex="1" parent="1">
          <mxGeometry x="200" y="350" width="160" height="30" as="geometry" />
        </mxCell>
        <mxCell id="QEqk4cH7dGDGcWlQzDzq-45" style="edgeStyle=orthogonalEdgeStyle;rounded=0;orthogonalLoop=1;jettySize=auto;html=1;exitX=0;exitY=0;exitDx=0;exitDy=0;entryX=0.27;entryY=0.967;entryDx=0;entryDy=0;entryPerimeter=0;" edge="1" parent="1" source="QEqk4cH7dGDGcWlQzDzq-9" target="QEqk4cH7dGDGcWlQzDzq-1">
          <mxGeometry relative="1" as="geometry" />
        </mxCell>
        <mxCell id="QEqk4cH7dGDGcWlQzDzq-46" value="INFORMACIJE O FILMOVIMA" style="text;html=1;align=center;verticalAlign=middle;whiteSpace=wrap;rounded=0;" vertex="1" parent="1">
          <mxGeometry x="210" y="250" width="170" height="30" as="geometry" />
        </mxCell>
        <mxCell id="QEqk4cH7dGDGcWlQzDzq-48" value="&lt;div&gt;ODABIR FILMA I TERMINA PROJEKCIJE&lt;/div&gt;&lt;div&gt;ODABIR SJEDALA&lt;/div&gt;&lt;div&gt;POKUŠAJ KUPOVINE KARTE&lt;/div&gt;" style="text;html=1;align=center;verticalAlign=middle;whiteSpace=wrap;rounded=0;" vertex="1" parent="1">
          <mxGeometry x="740" y="-20" width="240" height="80" as="geometry" />
        </mxCell>
        <mxCell id="QEqk4cH7dGDGcWlQzDzq-49" style="edgeStyle=orthogonalEdgeStyle;rounded=0;orthogonalLoop=1;jettySize=auto;html=1;exitX=1;exitY=0.5;exitDx=0;exitDy=0;entryX=0.248;entryY=-0.002;entryDx=0;entryDy=0;entryPerimeter=0;" edge="1" parent="1" source="QEqk4cH7dGDGcWlQzDzq-11" target="QEqk4cH7dGDGcWlQzDzq-1">
          <mxGeometry relative="1" as="geometry">
            <Array as="points">
              <mxPoint x="1090" y="460" />
              <mxPoint x="1090" y="-10" />
              <mxPoint x="90" y="-10" />
            </Array>
          </mxGeometry>
        </mxCell>
        <mxCell id="QEqk4cH7dGDGcWlQzDzq-50" value="&lt;div&gt;POTVRDA REZERVACIJE&lt;/div&gt;&lt;div&gt;ODOBRENJE PLAĆANJA I IZDAVANJE KARTE&lt;/div&gt;&lt;div&gt;PREGLED REZERVACIJA&lt;/div&gt;" style="text;html=1;align=center;verticalAlign=middle;whiteSpace=wrap;rounded=0;" vertex="1" parent="1">
          <mxGeometry x="760" y="-50" width="270" height="30" as="geometry" />
        </mxCell>
        <mxCell id="QEqk4cH7dGDGcWlQzDzq-53" style="edgeStyle=orthogonalEdgeStyle;rounded=0;orthogonalLoop=1;jettySize=auto;html=1;entryX=0.296;entryY=-0.015;entryDx=0;entryDy=0;entryPerimeter=0;" edge="1" parent="1" source="QEqk4cH7dGDGcWlQzDzq-2" target="QEqk4cH7dGDGcWlQzDzq-11">
          <mxGeometry relative="1" as="geometry" />
        </mxCell>
        <mxCell id="QEqk4cH7dGDGcWlQzDzq-54" value="&lt;div&gt;PREGLED REZERVACIJE&lt;/div&gt;&lt;div&gt;PRIHVAĆANJE REZERVACIJE I KUPOVINE&lt;/div&gt;" style="edgeLabel;html=1;align=center;verticalAlign=middle;resizable=0;points=[];labelBackgroundColor=none;" vertex="1" connectable="0" parent="QEqk4cH7dGDGcWlQzDzq-53">
          <mxGeometry x="-0.1239" y="-1" relative="1" as="geometry">
            <mxPoint as="offset" />
          </mxGeometry>
        </mxCell>
        <mxCell id="QEqk4cH7dGDGcWlQzDzq-60" style="edgeStyle=orthogonalEdgeStyle;rounded=0;orthogonalLoop=1;jettySize=auto;html=1;entryX=1;entryY=0.75;entryDx=0;entryDy=0;" edge="1" parent="1" source="QEqk4cH7dGDGcWlQzDzq-57" target="QEqk4cH7dGDGcWlQzDzq-11">
          <mxGeometry relative="1" as="geometry">
            <Array as="points">
              <mxPoint x="1130" y="690" />
              <mxPoint x="1130" y="510" />
            </Array>
          </mxGeometry>
        </mxCell>
        <mxCell id="QEqk4cH7dGDGcWlQzDzq-57" value="SUSTAV NAPLATE" style="ellipse;whiteSpace=wrap;html=1;" vertex="1" parent="1">
          <mxGeometry x="867.5" y="670" width="120" height="80" as="geometry" />
        </mxCell>
        <mxCell id="QEqk4cH7dGDGcWlQzDzq-61" value="OBRADA PLAĆANJA" style="text;html=1;align=center;verticalAlign=middle;whiteSpace=wrap;rounded=0;" vertex="1" parent="1">
          <mxGeometry x="980" y="660" width="140" height="30" as="geometry" />
        </mxCell>
        <mxCell id="QEqk4cH7dGDGcWlQzDzq-63" value="ZAHTJEV ZA GENERIRANJE IZVJEŠTAJA" style="text;html=1;align=center;verticalAlign=middle;whiteSpace=wrap;rounded=0;" vertex="1" parent="1">
          <mxGeometry x="155" y="970" width="200" height="80" as="geometry" />
        </mxCell>
        <mxCell id="QEqk4cH7dGDGcWlQzDzq-64" style="edgeStyle=orthogonalEdgeStyle;rounded=0;orthogonalLoop=1;jettySize=auto;html=1;exitX=0;exitY=0.25;exitDx=0;exitDy=0;entryX=0.296;entryY=0.921;entryDx=0;entryDy=0;entryPerimeter=0;" edge="1" parent="1" source="QEqk4cH7dGDGcWlQzDzq-13" target="QEqk4cH7dGDGcWlQzDzq-3">
          <mxGeometry relative="1" as="geometry" />
        </mxCell>
        <mxCell id="QEqk4cH7dGDGcWlQzDzq-65" value="PREGLED IZVJEŠTAJA" style="text;html=1;align=center;verticalAlign=middle;whiteSpace=wrap;rounded=0;" vertex="1" parent="1">
          <mxGeometry x="155" y="890" width="140" height="20" as="geometry" />
        </mxCell>
      </root>
    </mxGraphModel>
  </diagram>
</mxfile>
